<svg xmlns="http://www.w3.org/2000/svg" viewBox="56.5 -20.7 231.7 246.7" fill="none" stroke="#e8e9eb" stroke-width="2.6" stroke-linecap="round" stroke-linejoin="round">
  <path d="M62.7 141.6 Q62.7 139 62.6 135.6 Q62.5 132.3 62.5 127.1 Q62.5 121.9 62.7 118 Q62.8 114.1 62.9 111.8 Q63.1 109.4 63.2 107.8 Q63.4 106.3 63.7 105.3 Q64 104.3 65.1 102.9 Q66.1 101.6 66.9 100.8 Q67.7 99.9 68.1 100.6 Q68.6 101.2 68.7 102.3 Q68.8 103.5 69.9 105.4 Q70.9 107.3 71.7 108.6 Q72.5 109.9 73.1 110.9 Q73.8 111.9 74.5 113 Q75.2 114.1 75.6 114.8 Q75.9 115.6 77.1 117.7 Q78.2 119.7 79.2 121.2 Q80.1 122.6 80.8 123.7 Q81.5 124.8 82 125.7 Q82.5 126.6 83.1 127.7 Q83.8 128.9 84.8 129.4 Q85.7 129.9 87.6 129 Q89.6 128.1 93.4 125.5 Q97.2 122.9 101.1 119.6 Q104.9 116.3 108.3 112.6 Q111.6 108.8 114 105.7 Q116.4 102.5 117.8 99.9 Q119.3 97.3 120.2 94.9 Q121.2 92.5 121.6 91.2 Q122 89.8 122.2 88.9 Q122.4 88 122.4 87.1 Q122.4 86.3 122.5 89.1 Q122.7 92 122.7 96.6 Q122.7 101.3 122 108 Q121.3 114.6 119.8 122.9 Q118.3 131.2 116 139.7 Q113.7 148.2 110.5 157.8 Q107.3 167.4 103 177.4 Q98.6 187.4 93.9 195.8 Q89.2 204.1 85.5 209.1 Q81.8 214 78.7 216.8 Q75.5 219.6 72.7 220.8 Q69.9 222 67.5 219.9 Q65.2 217.8 63.4 210.6 Q61.7 203.5 61.1 192.5 Q60.5 181.5 61.4 170.8 Q62.4 160.1 65.7 151.7 Q69.1 143.2 73.2 137.5 Q77.4 131.9 80.8 129.2 Q84.3 126.5 86.6 125.1 Q88.9 123.7 90 123.3 Q91.2 122.8 92.8 122.8 Q94.5 122.7 96.4 122.7 Q98.3 122.7 100.5 122.7 Q102.7 122.7 104.7 122.7 Q106.7 122.7 108.8 122.6 Q110.8 122.4 113.5 121.2 Q116.1 119.9 119.4 117.3 Q122.7 114.6 127 110.8 Q131.2 107 135.4 103.2 Q139.5 99.4 142.3 96.6 Q145.2 93.8 147.1 91.9 Q149 90.1 149.9 89.1 Q150.9 88.2 151.4 87.4 Q151.8 86.6 152.1 85.3 Q152.3 84 152.4 81.3 Q152.5 78.6 152.5 73.8 Q152.5 69 152.4 64.3 Q152.2 59.7 151.9 56.7 Q151.6 53.8 151.3 52.1 Q151 50.5 151 52.5 Q150.9 54.6 150.9 61.2 Q150.9 67.8 150.9 79.5 Q150.9 91.2 150.7 104.9 Q150.5 118.5 150.2 128 Q149.9 137.5 149.7 142.9 Q149.6 148.2 149.6 151.9 Q149.6 155.5 149.6 156.8 Q149.6 158.1 149.6 156.4 Q149.6 154.7 150.5 149.3 Q151.5 144 153.9 135.8 Q156.4 127.6 159.6 119.7 Q162.8 111.9 165.7 106.7 Q168.5 101.6 170.9 98.4 Q173.3 95.2 175.1 93.4 Q176.9 91.6 177.7 91.1 Q178.5 90.7 178.9 92.7 Q179.2 94.6 179.2 97.5 Q179.2 100.5 179.1 103.2 Q179 106 178.9 107.6 Q178.8 109.2 178.8 110 Q178.8 110.9 180.8 109.7 Q182.9 108.6 186 105.5 Q189.2 102.5 192.1 99.3 Q195 96.2 197 93.9 Q198.9 91.5 200 90 Q201 88.5 199.6 87.8 Q198.2 87 194.3 88.9 Q190.5 90.7 186 94.4 Q181.5 98 177.6 102 Q173.6 106 171 110.2 Q168.3 114.5 167.6 118.4 Q166.8 122.4 167.1 125.7 Q167.4 129 170.3 131.7 Q173.3 134.4 178.3 136 Q183.3 137.5 188.9 137.7 Q194.5 137.9 200.4 136.9 Q206.2 135.9 210.9 133.3 Q215.6 130.7 218.4 128.1 Q221.2 125.4 222.7 123.4 Q224.2 121.4 225 120.2 Q225.8 119 226 120.3 Q226.2 121.6 226.9 121.1 Q227.5 120.6 228.8 117.3 Q230.2 114 231.9 108.4 Q233.6 102.9 235 97.9 Q236.4 93 237.2 89.7 Q238 86.4 238.5 84.2 Q239 82 239.3 81.2 Q239.5 80.4 239.7 79.4 Q239.9 78.4 239.9 76.9 Q239.9 75.4 239.9 73.3 Q239.9 71.3 239.9 69.4 Q239.9 67.6 239.9 66.1 Q239.8 64.6 239.8 63.7 Q239.7 62.8 239.9 64.8 Q240.1 66.9 240.8 72.8 Q241.5 78.7 242.8 90 Q244.1 101.3 245.7 113.1 Q247.2 124.8 248.4 133 Q249.6 141.2 250.6 146.5 Q251.5 151.7 252.2 154.5 Q252.9 157.2 253.3 158 Q253.7 158.8 254.2 155.6 Q254.7 152.5 255 140.5 Q255.2 128.5 254.9 101.7 Q254.5 74.9 253.8 50 Q253 25.1 252.6 14.9 Q252.3 4.6 252.1 -2.4 Q251.9 -9.3 251.8 -13 Q251.7 -16.7 252.1 -14.6 Q252.6 -12.4 253.9 -4.2 Q255.2 3.9 257 17.1 Q258.9 30.3 260.3 43.7 Q261.8 57.2 262.6 67.6 Q263.3 77.9 263.7 84.7 Q264 91.5 264.1 95.6 Q264.2 99.8 264.2 101.8 Q264.2 103.9 264.2 105 Q264.2 106 263.4 108 Q262.6 110 261.3 112 Q260 114.1 258.1 116.7 Q256.2 119.3 253.8 122.6 Q251.5 125.8 248.5 129.8 Q245.5 133.8 241.6 138.6 Q237.8 143.4 233.3 148.4 Q228.8 153.4 222.6 158.2 Q216.4 163 206.9 166.2 Q197.3 169.3 186.9 169.9 Q176.6 170.4 167.8 168.8 Q159 167.3 152.4 164.9 Q145.8 162.6 140.8 160.9 Q135.8 159.1 132 157.8 Q128.1 156.5 125.2 156.1 Q122.3 155.6 119.3 155.8 Q116.3 155.9 112.9 157.5 Q109.5 159.2 106.3 161.6 Q103.1 164 100.7 165.9 Q98.3 167.8 96.4 169.3 Q94.5 170.8 93 171.8 Q91.6 172.7 90 173.4 Q88.5 174 86.7 174.5 Q85 175 83.2 175.4 Q81.4 175.7 80.1 176 Q78.7 176.3 85.8 173.3 Q92.9 170.3 106.5 165.2 Q120.1 160.1 140.7 153.4 Q161.2 146.7 182.1 141.1 Q203 135.5 218 132.8 Q233.1 130.2 243.9 129.2 Q254.7 128.1 261.8 127.9 Q268.9 127.8 273.5 127.8 Q278.2 127.8 280.4 127.8 Q282.6 127.8 283.4 127.8 L284.2 127.8"/>
  <path d="M62.7 141.6 Q62.7 139 62.6 135.6 Q62.5 132.3 62.5 127.1 Q62.5 121.9 62.7 118 Q62.8 114.1 62.9 111.8 Q63.1 109.4 63.2 107.8 Q63.4 106.3 63.7 105.3 Q64 104.3 65.1 102.9 Q66.1 101.6 66.9 100.8 Q67.7 99.9 68.1 100.6 Q68.6 101.2 68.7 102.3 Q68.8 103.5 69.9 105.4 Q70.9 107.3 71.7 108.6 Q72.5 109.9 73.1 110.9 Q73.8 111.9 74.5 113 Q75.2 114.1 75.6 114.8 Q75.9 115.6 77.1 117.7 Q78.2 119.7 79.2 121.2 Q80.1 122.6 80.8 123.7 Q81.5 124.8 82 125.7 Q82.5 126.6 83.1 127.7 Q83.8 128.9 84.8 129.4 Q85.7 129.9 87.6 129 Q89.6 128.1 93.4 125.5 Q97.2 122.9 101.1 119.6 Q104.9 116.3 108.3 112.6 Q111.6 108.8 114 105.7 Q116.4 102.5 117.8 99.9 Q119.3 97.3 120.2 94.9 Q121.2 92.5 121.6 91.2 Q122 89.8 122.2 88.9 Q122.4 88 122.4 87.1 Q122.4 86.3 122.5 89.1 Q122.7 92 122.7 96.6 Q122.7 101.3 122 108 Q121.3 114.6 119.8 122.9 Q118.3 131.2 116 139.7 Q113.7 148.2 110.5 157.8 Q107.3 167.4 103 177.4 Q98.6 187.4 93.9 195.8 Q89.2 204.1 85.5 209.1 Q81.8 214 78.7 216.8 Q75.5 219.6 72.7 220.8 Q69.9 222 67.5 219.9 Q65.2 217.8 63.4 210.6 Q61.7 203.5 61.1 192.5 Q60.5 181.5 61.4 170.8 Q62.4 160.1 65.7 151.7 Q69.1 143.2 73.2 137.5 Q77.4 131.9 80.8 129.2 Q84.3 126.5 86.6 125.1 Q88.9 123.7 90 123.3 Q91.2 122.8 92.8 122.8 Q94.5 122.7 96.4 122.7 Q98.3 122.7 100.5 122.7 Q102.7 122.7 104.7 122.7 Q106.7 122.7 108.8 122.6 Q110.8 122.4 113.5 121.2 Q116.1 119.9 119.4 117.3 Q122.7 114.6 127 110.8 Q131.2 107 135.4 103.2 Q139.5 99.4 142.3 96.6 Q145.2 93.8 147.1 91.9 Q149 90.1 149.9 89.1 Q150.9 88.2 151.4 87.4 Q151.8 86.6 152.1 85.3 Q152.3 84 152.4 81.3 Q152.5 78.6 152.5 73.8 Q152.5 69 152.4 64.3 Q152.2 59.7 151.9 56.7 Q151.6 53.8 151.3 52.1 Q151 50.5 151 52.5 Q150.9 54.6 150.9 61.2 Q150.9 67.8 150.9 79.5 Q150.9 91.2 150.7 104.9 Q150.5 118.5 150.2 128 Q149.9 137.5 149.7 142.9 Q149.6 148.2 149.6 151.9 Q149.6 155.5 149.6 156.8 Q149.6 158.1 149.6 156.4 Q149.6 154.7 150.5 149.3 Q151.5 144 153.9 135.8 Q156.4 127.6 159.6 119.7 Q162.8 111.9 165.7 106.7 Q168.5 101.6 170.9 98.4 Q173.3 95.2 175.1 93.4 Q176.9 91.6 177.7 91.1 Q178.5 90.7 178.9 92.7 Q179.2 94.6 179.2 97.5 Q179.2 100.5 179.1 103.2 Q179 106 178.9 107.6 Q178.8 109.2 178.8 110 Q178.8 110.9 180.8 109.7 Q182.9 108.6 186 105.5 Q189.2 102.5 192.1 99.3 Q195 96.2 197 93.9 Q198.9 91.5 200 90 Q201 88.5 199.6 87.8 Q198.2 87 194.3 88.9 Q190.5 90.7 186 94.4 Q181.5 98 177.6 102 Q173.6 106 171 110.2 Q168.3 114.5 167.6 118.4 Q166.8 122.4 167.1 125.7 Q167.4 129 170.3 131.7 Q173.3 134.4 178.3 136 Q183.3 137.5 188.9 137.7 Q194.5 137.9 200.4 136.9 Q206.2 135.9 210.9 133.3 Q215.6 130.7 218.4 128.1 Q221.2 125.4 222.7 123.4 Q224.2 121.4 225 120.2 Q225.8 119 226 120.3 Q226.2 121.6 226.9 121.1 Q227.5 120.6 228.8 117.3 Q230.2 114 231.9 108.4 Q233.6 102.9 235 97.9 Q236.4 93 237.2 89.7 Q238 86.4 238.5 84.2 Q239 82 239.3 81.2 Q239.5 80.4 239.7 79.4 Q239.9 78.4 239.9 76.9 Q239.9 75.4 239.9 73.3 Q239.9 71.3 239.9 69.4 Q239.9 67.6 239.9 66.1 Q239.8 64.6 239.8 63.7 Q239.7 62.8 239.9 64.8 Q240.1 66.9 240.8 72.8 Q241.5 78.7 242.8 90 Q244.1 101.3 245.7 113.1 Q247.2 124.8 248.4 133 Q249.6 141.2 250.6 146.5 Q251.5 151.7 252.2 154.5 Q252.9 157.2 253.3 158 Q253.7 158.8 254.2 155.6 Q254.7 152.5 255 140.5 Q255.2 128.5 254.9 101.7 Q254.5 74.9 253.8 50 Q253 25.1 252.6 14.9 Q252.3 4.6 252.1 -2.4 Q251.9 -9.3 251.8 -13 Q251.7 -16.7 252.1 -14.6 Q252.6 -12.4 253.9 -4.2 Q255.2 3.9 257 17.1 Q258.9 30.3 260.3 43.7 Q261.8 57.2 262.6 67.6 Q263.3 77.9 263.7 84.7 Q264 91.5 264.1 95.6 Q264.2 99.8 264.2 101.8 Q264.2 103.9 264.2 105 Q264.2 106 263.4 108 Q262.6 110 261.3 112 Q260 114.1 258.1 116.7 Q256.2 119.3 253.8 122.6 Q251.5 125.8 248.5 129.8 Q245.5 133.8 241.6 138.6 Q237.8 143.4 233.3 148.4 Q228.8 153.4 222.6 158.2 Q216.4 163 206.9 166.2 Q197.3 169.3 186.9 169.9 Q176.6 170.4 167.8 168.8 Q159 167.3 152.4 164.9 Q145.8 162.6 140.8 160.9 Q135.8 159.1 132 157.8 Q128.1 156.5 125.2 156.1 Q122.3 155.6 119.3 155.8 Q116.3 155.9 112.9 157.5 Q109.5 159.2 106.3 161.6 Q103.1 164 100.7 165.9 Q98.3 167.8 96.4 169.3 Q94.5 170.8 93 171.8 Q91.6 172.7 90 173.4 Q88.5 174 86.7 174.5 Q85 175 83.2 175.4 Q81.4 175.7 80.1 176 Q78.7 176.3 85.8 173.3 Q92.9 170.3 106.5 165.2 Q120.1 160.1 140.7 153.4 Q161.2 146.7 182.1 141.1 Q203 135.5 218 132.8 Q233.1 130.2 243.9 129.2 Q254.7 128.1 261.8 127.9 Q268.9 127.8 273.5 127.8 Q278.2 127.8 280.4 127.8 Q282.6 127.8 283.4 127.8 L284.2 127.8"/>
</svg>
