<svg xmlns="http://www.w3.org/2000/svg" viewBox="127.2 63.4 412.3 131.1" fill="none" stroke="#e8e9eb" stroke-width="2.6" stroke-linecap="round" stroke-linejoin="round">
  <path d="M151.2 67.4 Q151.2 75.6 151.2 83.1 Q151.2 90.5 150.8 99.8 Q150.4 109 149.7 118.1 Q148.9 127.3 148.4 134.7 Q147.9 142.1 147.6 147.2 Q147.3 152.4 147.1 154.7 Q146.9 157 146.4 158.4 Q146 159.9 145.1 160.4 Q144.1 160.9 142.8 160.4 Q141.4 160 139.6 157.9 Q137.8 155.7 135.9 152 Q134.1 148.3 133 144.1 Q131.8 139.8 131.5 134.7 Q131.2 129.6 131.2 124.6 Q131.2 119.6 131.8 115.6 Q132.4 111.6 133.6 108.6 Q134.7 105.6 135.9 103.9 Q137.1 102.2 138.5 101.7 Q139.9 101.1 141.6 101.2 Q143.3 101.3 146.3 103.8 Q149.3 106.3 153.2 111.2 Q157.1 116.2 161.5 122.5 Q165.9 128.9 170.9 136 Q175.8 143.2 179.6 148.7 Q183.4 154.1 185.9 157.8 Q188.5 161.5 190.3 164 Q192.2 166.5 193.1 167.4 Q194 168.4 194.8 168 Q195.6 167.6 197 163.3 Q198.3 159.1 200 152.1 Q201.6 145.1 202.8 139.2 Q204.1 133.2 204.8 128.2 Q205.5 123.1 205.9 119.2 Q206.3 115.4 206.5 113.1 Q206.7 110.9 206.7 109.5 Q206.7 108.1 206.7 107 Q206.7 106 206.7 104.5 Q206.7 103.1 206.7 101.9 L206.7 100.6"/>
  <path d="M151.2 67.4 Q151.2 75.6 151.2 83.1 Q151.2 90.5 150.8 99.8 Q150.4 109 149.7 118.1 Q148.9 127.3 148.4 134.7 Q147.9 142.1 147.6 147.2 Q147.3 152.4 147.1 154.7 Q146.9 157 146.4 158.4 Q146 159.9 145.1 160.4 Q144.1 160.9 142.8 160.4 Q141.4 160 139.6 157.9 Q137.8 155.7 135.9 152 Q134.1 148.3 133 144.1 Q131.8 139.8 131.5 134.7 Q131.2 129.6 131.2 124.6 Q131.2 119.6 131.8 115.6 Q132.4 111.6 133.6 108.6 Q134.7 105.6 135.9 103.9 Q137.1 102.2 138.5 101.7 Q139.9 101.1 141.6 101.2 Q143.3 101.3 146.3 103.8 Q149.3 106.3 153.2 111.2 Q157.1 116.2 161.5 122.5 Q165.9 128.9 170.9 136 Q175.8 143.2 179.6 148.7 Q183.4 154.1 185.9 157.8 Q188.5 161.5 190.3 164 Q192.2 166.5 193.1 167.4 Q194 168.4 194.8 168 Q195.6 167.6 197 163.3 Q198.3 159.1 200 152.1 Q201.6 145.1 202.8 139.2 Q204.1 133.2 204.8 128.2 Q205.5 123.1 205.9 119.2 Q206.3 115.4 206.5 113.1 Q206.7 110.9 206.7 109.5 Q206.7 108.1 206.7 107 Q206.7 106 206.7 104.5 Q206.7 103.1 206.7 101.9 L206.7 100.6"/>
  <path d="M234.6 138.7 Q232.9 138.4 232.5 140.3 Q232.2 142.2 232.2 144.5 Q232.2 146.8 232.2 149.2 Q232.2 151.6 232.2 153.8 Q232.2 155.9 232.2 158 Q232.2 160 232.2 161.8 Q232.2 163.6 232.4 164.8 Q232.5 166 233.2 166.8 Q233.8 167.5 234.9 168 Q236 168.5 237.4 168.8 Q238.7 169 239.9 169.1 Q241.2 169.1 242.3 169 Q243.3 168.9 244.2 168.3 Q245 167.7 245.6 166.6 Q246.2 165.6 246.5 164.3 Q246.8 163 246.9 161.4 Q247 159.9 247 158.3 Q247 156.7 246.9 155.2 Q246.7 153.6 246.2 152.1 Q245.8 150.6 245.2 149.4 Q244.6 148.2 244.2 147.3 Q243.8 146.4 243.5 145.6 Q243.1 144.8 243.4 145.9 Q243.6 147 244.7 148.3 Q245.9 149.6 247.8 151 Q249.7 152.4 251.7 153.7 Q253.8 155 255.9 156.2 Q258.1 157.4 260.1 158.4 Q262.2 159.4 263.8 160 Q265.5 160.6 266.6 161 Q267.6 161.4 268.8 161.9 L269.9 162.3"/>
  <path d="M234.6 138.7 Q232.9 138.4 232.5 140.3 Q232.2 142.2 232.2 144.5 Q232.2 146.8 232.2 149.2 Q232.2 151.6 232.2 153.8 Q232.2 155.9 232.2 158 Q232.2 160 232.2 161.8 Q232.2 163.6 232.4 164.8 Q232.5 166 233.2 166.8 Q233.8 167.5 234.9 168 Q236 168.5 237.4 168.8 Q238.7 169 239.9 169.1 Q241.2 169.1 242.3 169 Q243.3 168.9 244.2 168.3 Q245 167.7 245.6 166.6 Q246.2 165.6 246.5 164.3 Q246.8 163 246.9 161.4 Q247 159.9 247 158.3 Q247 156.7 246.9 155.2 Q246.7 153.6 246.2 152.1 Q245.8 150.6 245.2 149.4 Q244.6 148.2 244.2 147.3 Q243.8 146.4 243.5 145.6 Q243.1 144.8 243.4 145.9 Q243.6 147 244.7 148.3 Q245.9 149.6 247.8 151 Q249.7 152.4 251.7 153.7 Q253.8 155 255.9 156.2 Q258.1 157.4 260.1 158.4 Q262.2 159.4 263.8 160 Q265.5 160.6 266.6 161 Q267.6 161.4 268.8 161.9 L269.9 162.3"/>
  <path d="M287.8 148.5 Q289.6 147.9 291.1 147.9 Q292.5 147.9 294.5 147.9 Q296.4 147.9 298.3 147.9 Q300.1 147.9 301.5 148.4 Q302.8 148.8 303.8 150 Q304.8 151.2 305.4 153 Q306 154.7 306.2 156.3 Q306.3 157.8 306.3 159.2 Q306.3 160.5 306.1 161.7 Q306 163 305.2 164 Q304.3 165 302.8 165.9 Q301.3 166.8 299.8 167.5 Q298.2 168.1 296.6 168.6 Q295 169.1 293.6 169.3 Q292.2 169.6 291.1 169.7 Q289.9 169.7 288.8 169.6 Q287.8 169.4 287 168.9 Q286.2 168.4 285.7 167.7 Q285.2 166.9 284.8 166 Q284.4 165.1 284.3 164 Q284.1 162.9 284.1 161.7 Q284.1 160.5 284.1 159.3 Q284.1 158.1 284.1 157 Q284.1 155.9 284.2 154.7 Q284.3 153.5 284.6 152.4 Q285 151.2 285.4 150.4 L285.8 149.5"/>
  <path d="M287.8 148.5 Q289.6 147.9 291.1 147.9 Q292.5 147.9 294.5 147.9 Q296.4 147.9 298.3 147.9 Q300.1 147.9 301.5 148.4 Q302.8 148.8 303.8 150 Q304.8 151.2 305.4 153 Q306 154.7 306.2 156.3 Q306.3 157.8 306.3 159.2 Q306.3 160.5 306.1 161.7 Q306 163 305.2 164 Q304.3 165 302.8 165.9 Q301.3 166.8 299.8 167.5 Q298.2 168.1 296.6 168.6 Q295 169.1 293.6 169.3 Q292.2 169.6 291.1 169.7 Q289.9 169.7 288.8 169.6 Q287.8 169.4 287 168.9 Q286.2 168.4 285.7 167.7 Q285.2 166.9 284.8 166 Q284.4 165.1 284.3 164 Q284.1 162.9 284.1 161.7 Q284.1 160.5 284.1 159.3 Q284.1 158.1 284.1 157 Q284.1 155.9 284.2 154.7 Q284.3 153.5 284.6 152.4 Q285 151.2 285.4 150.4 L285.8 149.5"/>
  <path d="M319.5 133 Q319.5 136.3 319.5 139.9 Q319.5 143.5 319.5 148.5 Q319.5 153.5 319.5 158.2 Q319.5 162.8 319.5 166.3 Q319.5 169.8 319.5 172.2 Q319.5 174.6 319.5 175.5 Q319.5 176.4 319.5 175.5 Q319.5 174.6 319.5 172.8 Q319.5 170.9 319.6 167.9 Q319.8 164.9 320.9 160.7 Q321.9 156.5 323.9 151.6 Q325.9 146.8 328.2 142.9 Q330.4 139 332.6 136.2 Q334.8 133.5 337 131.4 Q339.3 129.3 341.4 127.9 Q343.5 126.5 344.9 125.9 Q346.4 125.2 347.5 125.1 Q348.7 125 348.1 126.3 Q347.6 127.7 345.5 129.6 Q343.5 131.6 340.1 134.6 Q336.8 137.6 333.4 140.8 Q330 144.1 327.4 146.8 Q324.7 149.6 322.8 151.6 Q320.8 153.5 319.8 154.4 Q318.9 155.2 318.5 156 Q318.1 156.7 320 157.5 Q321.8 158.3 325 159.9 Q328.1 161.5 333.1 164.2 Q338.1 167 344.4 170.5 Q350.7 174 356.5 177.4 Q362.3 180.8 366.4 183.3 Q370.5 185.8 373.3 187.4 Q376.2 189 377.5 189.8 L378.9 190.6"/>
  <path d="M319.5 133 Q319.5 136.3 319.5 139.9 Q319.5 143.5 319.5 148.5 Q319.5 153.5 319.5 158.2 Q319.5 162.8 319.5 166.3 Q319.5 169.8 319.5 172.2 Q319.5 174.6 319.5 175.5 Q319.5 176.4 319.5 175.5 Q319.5 174.6 319.5 172.8 Q319.5 170.9 319.6 167.9 Q319.8 164.9 320.9 160.7 Q321.9 156.5 323.9 151.6 Q325.9 146.8 328.2 142.9 Q330.4 139 332.6 136.2 Q334.8 133.5 337 131.4 Q339.3 129.3 341.4 127.9 Q343.5 126.5 344.9 125.9 Q346.4 125.2 347.5 125.1 Q348.7 125 348.1 126.3 Q347.6 127.7 345.5 129.6 Q343.5 131.6 340.1 134.6 Q336.8 137.6 333.4 140.8 Q330 144.1 327.4 146.8 Q324.7 149.6 322.8 151.6 Q320.8 153.5 319.8 154.4 Q318.9 155.2 318.5 156 Q318.1 156.7 320 157.5 Q321.8 158.3 325 159.9 Q328.1 161.5 333.1 164.2 Q338.1 167 344.4 170.5 Q350.7 174 356.5 177.4 Q362.3 180.8 366.4 183.3 Q370.5 185.8 373.3 187.4 Q376.2 189 377.5 189.8 L378.9 190.6"/>
  <path d="M403.5 148.2 Q403.2 152.6 403.2 155.6 Q403.2 158.7 403.2 162.7 Q403.2 166.8 403.2 170.4 Q403.2 174 403.2 176.4 Q403.2 178.8 403.2 180.5 Q403.2 182.3 403.2 183.3 L403.2 184.4"/>
  <path d="M403.5 148.2 Q403.2 152.6 403.2 155.6 Q403.2 158.7 403.2 162.7 Q403.2 166.8 403.2 170.4 Q403.2 174 403.2 176.4 Q403.2 178.8 403.2 180.5 Q403.2 182.3 403.2 183.3 L403.2 184.4"/>
  <path d="M167.5 137.1 Q173 137.9 183 139.6 Q193.1 141.2 218.9 143.9 Q244.8 146.5 284.3 148.2 Q323.9 149.9 361.4 150 Q398.8 150.1 427.9 150.1 Q457 150.1 476.5 150.1 Q496 150.1 506.9 150 Q517.8 150 523.5 149.4 Q529.3 148.8 531.8 147.4 Q534.2 146.1 534.9 144.1 Q535.5 142.1 535.1 137.1 Q534.7 132 533.6 129.6 Q532.4 127.2 531 124.9 Q529.6 122.5 528.1 120.6 Q526.5 118.6 524.7 117.1 Q522.9 115.7 521 114.6 Q519.1 113.5 517.4 112.9 Q515.8 112.2 514.4 112.1 Q513.1 111.9 512 112.1 Q510.9 112.2 509.7 113.4 Q508.6 114.5 507 117.8 Q505.5 121 503.8 126.1 Q502.1 131.3 500.3 142.6 Q498.6 153.9 498.4 157.3 Q498.3 160.7 498.3 164 Q498.3 167.3 498.6 170.1 Q498.9 172.9 499.6 173.8 Q500.2 174.8 501.4 175.3 Q502.6 175.8 503.9 175.8 Q505.1 175.7 506.5 175.3 L507.8 174.8"/>
  <path d="M167.5 137.1 Q173 137.9 183 139.6 Q193.1 141.2 218.9 143.9 Q244.8 146.5 284.3 148.2 Q323.9 149.9 361.4 150 Q398.8 150.1 427.9 150.1 Q457 150.1 476.5 150.1 Q496 150.1 506.9 150 Q517.8 150 523.5 149.4 Q529.3 148.8 531.8 147.4 Q534.2 146.1 534.9 144.1 Q535.5 142.1 535.1 137.1 Q534.7 132 533.6 129.6 Q532.4 127.2 531 124.9 Q529.6 122.5 528.1 120.6 Q526.5 118.6 524.7 117.1 Q522.9 115.7 521 114.6 Q519.1 113.5 517.4 112.9 Q515.8 112.2 514.4 112.1 Q513.1 111.9 512 112.1 Q510.9 112.2 509.7 113.4 Q508.6 114.5 507 117.8 Q505.5 121 503.8 126.1 Q502.1 131.3 500.3 142.6 Q498.6 153.9 498.4 157.3 Q498.3 160.7 498.3 164 Q498.3 167.3 498.6 170.1 Q498.9 172.9 499.6 173.8 Q500.2 174.8 501.4 175.3 Q502.6 175.8 503.9 175.8 Q505.1 175.7 506.5 175.3 L507.8 174.8"/>
</svg>
